<svg height="512" viewBox="0 0 135.46666 135.46667" width="512" xmlns="http://www.w3.org/2000/svg"><g stroke-width=".263956"><path d="m0 0h33.866665v33.866665h-33.866665z"/><path d="m.000002 33.866665h33.866665v33.866665h-33.866665z" fill="#ff6000"/><path d="m33.866665 33.866665h33.866665v33.866665h-33.866665z" fill="#ffda10"/><path d="m67.733322 33.866665h33.866665v33.866665h-33.866665z" fill="#354600"/><path d="m101.59999 33.866661h33.866665v33.866665h-33.866665z" fill="#00b422"/><path d="m.000002 67.73333h33.866665v33.866665h-33.866665z" fill="#0030ff"/><path d="m33.866657 67.73333h33.866665v33.866665h-33.866665z" fill="#609cff"/><path d="m67.733322 67.73333h33.866665v33.866665h-33.866665z" fill="#ff0048"/><path d="m101.59999 67.733322h33.866665v33.866665h-33.866665z" fill="#ff008a"/><path d="m101.59999 101.59999h33.866665v33.866665h-33.866665z" fill="#8fb372"/><path d="m67.733322 101.59999h33.866665v33.866665h-33.866665z" fill="#618045"/><path d="m33.866665 101.59999h33.866665v33.866665h-33.866665z" fill="#ff656f"/><path d="m.000002 101.59999h33.866665v33.866665h-33.866665z" fill="#ff140c"/><path d="m33.866665.000002h33.866665v33.866665h-33.866665z" fill="#3d3d3d" fill-opacity=".994127"/><path d="m67.73333.000001h33.866665v33.866665h-33.866665z" fill="#808080"/><path d="m101.59999.000001h33.866665v33.866665h-33.866665z" fill="#fff"/></g></svg>